<?xml version="1.0" encoding="utf-8"?>
<?xml-stylesheet type="text/xsl" href="rss1.xsl"?>
<rss version="2.0" xmlns:atom="http://www.w3.org/2005/Atom" xmlns:content="http://purl.org/rss/1.0/modules/content/" xmlns:dc="http://purl.org/dc/elements/1.1/" xmlns:media="http://search.yahoo.com/mrss/">
<channel>
 <title>Getty</title>
 <link>http://www.gettyimg.com/</link>
 <atom:link href="http://www.gettyimg.com/" rel="self" type="application/rss+xml" />

 
                <item>
                <title><![CDATA[【Apple Music】WEB-RiP - Perrie - Forget About Us 'Apple.Music.Web.1080-fstambuk']]></title>
                <link><![CDATA[https://sharemania.us/threads/perrie-forget-about-us-apple-music-web-1080-fstambuk.242669/]]></link>
                <description><![CDATA[<article>
<blockquote class="messageText SelectQuoteContainer ugc baseHtml">
<div style="text-align: center"><img src="https://i.ibb.co/5985RMv/Perrie-Forget-About-Us-Apple-Music-Web-1080-fstambuk-VTM-1.gif" class="bbCodeImage LbImage" alt="[​IMG]" data-url="https://i.ibb.co/5985RMv/Perrie-Forget-About-Us-Apple-Music-Web-1080-fstambuk-VTM-1.gif" style=""><br>
​</div>
<div class="ToggleTriggerAnchor bbCodeSpoilerContainer">
<button type="button" class="button bbCodeSpoilerButton ToggleTrigger Tooltip JsOnly" data-target="> .SpoilerTarget"><span>Spoiler: <span class="SpoilerTitle">Apple Music</span></span></button>
<div class="SpoilerTarget bbCodeSpoilerText">
<div class="bbCodeBlock bbCodeCode">
<div class="type">Code:</div>
<pre>General
Complete name                            : Perrie - Forget About Us 'Apple.Music.Web.1080-fstambuk'.m4v
Format                                   : MPEG-4
Codec ID                                 : M4V  (M4V /isom/iso2/avc1)
File size                                : 224 MiB
Duration                                 : 3 min 5 s
Overall bit rate                         : 10.2 Mb/s
Frame rate                               : 25.000 FPS
Movie name                               : Forget About Us (Official Video)
Performer                                : Perrie
Genre                                    : Pop
ContentType                              : Music Video
Recorded date                            : 2024-04-21 07:00:00 UTC
Copyright                                : ℗ (C) 2024 Sony Music Entertainment UK Limited, under exclusive licence from Perrie Louise Limited
Cover                                    : Yes
Rating                                   : None
GenreID                                  : 1614
AlbumTitleID                             : 1729865272
AppleStoreCatalogID                      : 1741391137

Video
ID                                       : 1
Format                                   : AVC
Format/Info                              : Advanced Video Codec
Format profile                           : High@L4
Format settings                          : CABAC / 4 Ref Frames
Format settings, CABAC                   : Yes
Format settings, Reference frames        : 4 frames
Format settings, Slice count             : 8 slices per frame
Codec ID                                 : avc1
Codec ID/Info                            : Advanced Video Coding
Duration                                 : 3 min 5 s
Bit rate                                 : 9 871 kb/s
Width                                    : 1 920 pixels
Height                                   : 1 080 pixels
Display aspect ratio                     : 16:9
Frame rate mode                          : Constant
Frame rate                               : 25.000 FPS
Color space                              : YUV
Chroma subsampling                       : 4:2:0
Bit depth                                : 8 bits
Scan type                                : Progressive
Bits/(Pixel*Frame)                       : 0.190
Stream size                              : 218 MiB (97%)
Title                                    : Core Media Video
Color range                              : Limited
Color primaries                          : BT.709
Transfer characteristics                 : BT.709
Matrix coefficients                      : BT.709
Codec configuration box                  : avcC

Audio
ID                                       : 2
Format                                   : AAC LC
Format/Info                              : Advanced Audio Codec Low Complexity
Codec ID                                 : 2 / 40 / mp4a-40-2
Duration                                 : 3 min 5 s
Bit rate mode                            : Constant
Bit rate                                 : 257 kb/s
Channel(s)                               : 2 channels
Channel layout                           : L R
Sampling rate                            : 48.0 kHz
Frame rate                               : 46.875 FPS (1024 SPF)
Compression mode                         : Lossy
Stream size                              : 5.67 MiB (3%)
Title                                    : Core Media Audio
Default                                  : Yes
Alternate group                          : 1

</pre>
</div><div style="text-align: center">​</div></div>
</div><div style="text-align: center"><br>
<div class="bbCodeBlock bbCodeVfcHH HiddenContent">
<div class="attribution type">Hidden Content:</div>
<blockquote>You must reply before you can see the hidden data contained here.</blockquote>
</div></div>
<div class="messageTextEndMarker">&nbsp;</div>
</blockquote>
</article>]]></description>
                <author><![CDATA[fstambuk]]></author>
                </item>

                </channel></rss>